{
  "title": "Ted.2.2015.CAM.x264-MenaceIISociety",
  "uid": 12076771,
  "size": 928821787,
  "categoryP": "video",
  "categoryS": "movies",
  "magnet": "?xt=urn:btih:21a18ca36fe4f81a6553814976e04cc030e8f5c9&amp;dn=Ted.2.2015.CAM.x264-MenaceIISociety&amp;tr=udp%3A%2F%2Ftracker.openbittorrent.com%3A80&amp;tr=udp%3A%2F%2Fopen.demonii.com%3A1337&amp;tr=udp%3A%2F%2Ftracker.coppersurfer.tk%3A6969&amp;tr=udp%3A%2F%2Fexodus.desync.com%3A6969",
  "seeders": 43,
  "leechers": 3,
  "uploader": "xxxlavalxxx",
  "files": 4,
  "time": 1435659579,
  "description": " &lt;a href=&quot;http://extraimago.com/image/sfh&quot; rel=&quot;nofollow&quot; target=&quot;_NEW&quot;&gt;http://extraimago.com/image/sfh&lt;/a&gt;\n &lt;a href=&quot;\nhttp://www.imdb.com/title/tt2637276/&quot; rel=&quot;nofollow&quot; target=&quot;_NEW&quot;&gt;\nhttp://www.imdb.com/title/tt2637276/&lt;/a&gt;\n\n\nNewlywed couple Ted and Tami-Lynn want to have a baby, but in order to qualify to be a parent, Ted will have to prove he's a person in a court of law.\n\nDirector: Seth MacFarlane\nWriters: Seth MacFarlane, Alec Sulkin\nStars: Mark Wahlberg, Seth MacFarlane, Amanda Seyfried\nGenres: Comedy\nCountry: USA\nLanguage: English\n\n\nSource: MRG [THANKS]\n\nCut the cam into 4 parts, start, middle, end, aftercredits. fixed perspective, crop, resize, had to add borders to parts 1, 3 and 4 tho to keep the resolution the same as the hdcam part which is the majority, then appended all back together. all in sync. pity it wasnt the full hd source but oh well. included screens from all 4 parts below\n\nGeneral\nComplete name: Ted.2.2015.CAM.x264-MenaceIISociety.mp4\nFormat: MPEG-4\nFormat profile: Base Media\nCodec ID: isom\nFile size: 871 MiB\nDuration: 1h 48mn\nOverall bit rate mode: Variable\nOverall bit rate: 1 119 Kbps\nEncoded date: UTC 2015-06-29 23:49:53\nTagged date: UTC 2015-06-29 23:49:53\n\nVideo\nID: 1\nFormat: AVC\nFormat/Info: Advanced Video Codec\nFormat profile: &lt;a class=&quot;__cf_email__&quot; href=&quot;/cdn-cgi/l/email-protection&quot; data-cfemail=&quot;98d0f1fff0d8d4acb6a9&quot;&gt;[email&amp;#160;protected]&lt;/a&gt;&lt;script data-cfhash='f9e31' type=&quot;text/javascript&quot;&gt;\n/* &lt;![CDATA[ */!function(){try{var t=&quot;currentScript&quot;in document?document.currentScript:function(){for(var t=document.getElementsByTagName(&quot;script&quot;),e=t.length;e--;)if(t[e].getAttribute(&quot;data-cfhash&quot;))return t[e]}();if(t&amp;&amp;t.previousSibling){var e,r,n,i,c=t.previousSibling,a=c.getAttribute(&quot;data-cfemail&quot;);if(a){for(e=&quot;&quot;,r=parseInt(a.substr(0,2),16),n=2;a.length-n;n+=2)i=parseInt(a.substr(n,2),16)^r,e+=String.fromCharCode(i);e=document.createTextNode(e),c.parentNode.replaceChild(e,c)}t.parentNode.removeChild(t);}}catch(u){}}()/* ]]&gt; */&lt;/script&gt;\nFormat settings, CABAC: Yes\nFormat settings, ReFrames: 3 frames\nCodec ID: avc1\nCodec ID/Info: Advanced Video Coding\nDuration: 1h 48mn\nSource duration: 1h 48mn\nBit rate mode: Variable\nBit rate: 1 031 Kbps\nMaximum bit rate: 40.0 Mbps\nWidth: 720 pixels\nHeight: 272 pixels\nDisplay aspect ratio: 2.647\nFrame rate mode: Constant\nFrame rate: 29.970 fps\nColor space: YUV\nChroma subsampling: 4:2:0\nBit depth: 8 bits\nScan type: Progressive\nBits/(Pixel*Frame): 0.176\nStream size: 802 MiB (92%)\nSource stream size: 802 MiB (92%)\nWriting library: x264 core 146 r2538 121396c\n\nAudio\nID: 2\nFormat: AAC\nFormat/Info: Advanced Audio Codec\nFormat profile: LC\nCodec ID: 40\nDuration: 1h 48mn\nBit rate mode: Variable\nBit rate: 83.7 Kbps\nMaximum bit rate: 91.9 Kbps\nChannel(s): 2 channels\nChannel positions: Front: L R\nSampling rate: 44.1 KHz\nCompression mode: Lossy\nStream size: 65.1 MiB (7%)\nEncoded date: UTC 2015-06-29 21:39:48\n\n &lt;a href=&quot;\nhttp://extraimago.com/image/sfb&quot; rel=&quot;nofollow&quot; target=&quot;_NEW&quot;&gt;\nhttp://extraimago.com/image/sfb&lt;/a&gt; &lt;a href=&quot;\nhttp://extraimago.com/image/sf3&quot; rel=&quot;nofollow&quot; target=&quot;_NEW&quot;&gt;\nhttp://extraimago.com/image/sf3&lt;/a&gt; &lt;a href=&quot;\nhttp://extraimago.com/image/sf9&quot; rel=&quot;nofollow&quot; target=&quot;_NEW&quot;&gt;\nhttp://extraimago.com/image/sf9&lt;/a&gt; &lt;a href=&quot;\nhttp://extraimago.com/image/sfM&quot; rel=&quot;nofollow&quot; target=&quot;_NEW&quot;&gt;\nhttp://extraimago.com/image/sfM&lt;/a&gt; &lt;a href=&quot;\nhttp://extraimago.com/image/sfU&quot; rel=&quot;nofollow&quot; target=&quot;_NEW&quot;&gt;\nhttp://extraimago.com/image/sfU&lt;/a&gt; &lt;a href=&quot;\nhttp://extraimago.com/image/sfz&quot; rel=&quot;nofollow&quot; target=&quot;_NEW&quot;&gt;\nhttp://extraimago.com/image/sfz&lt;/a&gt; &lt;a href=&quot;\nhttp://extraimago.com/image/sf0&quot; rel=&quot;nofollow&quot; target=&quot;_NEW&quot;&gt;\nhttp://extraimago.com/image/sf0&lt;/a&gt; &lt;a href=&quot;\nhttp://extraimago.com/image/sfJ&quot; rel=&quot;nofollow&quot; target=&quot;_NEW&quot;&gt;\nhttp://extraimago.com/image/sfJ&lt;/a&gt;",
  "parsed": {
    "xt": "urn:btih:21a18ca36fe4f81a6553814976e04cc030e8f5c9",
    "dn": "Ted.2.2015.CAM.x264-MenaceIISociety",
    "tr": [
      "udp://exodus.desync.com:6969",
      "udp://open.demonii.com:1337",
      "udp://tracker.coppersurfer.tk:6969",
      "udp://tracker.openbittorrent.com:80"
    ],
    "infoHash": "21a18ca36fe4f81a6553814976e04cc030e8f5c9",
    "infoHashBuffer": {
      "type": "Buffer",
      "data": [
        33,
        161,
        140,
        163,
        111,
        228,
        248,
        26,
        101,
        83,
        129,
        73,
        118,
        224,
        76,
        192,
        48,
        232,
        245,
        201
      ]
    },
    "name": "Ted.2.2015.CAM.x264-MenaceIISociety",
    "announce": [
      "udp://exodus.desync.com:6969",
      "udp://open.demonii.com:1337",
      "udp://tracker.coppersurfer.tk:6969",
      "udp://tracker.openbittorrent.com:80"
    ],
    "urlList": []
  },
  "previous": 13,
  "peers": 4,
  "last_updated": "2016-12-26T18:42:44.917Z"
}